<svg xmlns="http://www.w3.org/2000/svg" xmlns:xlink="http://www.w3.org/1999/xlink" width="30" height="30"><defs><symbol id="icon-icon" viewBox="0 0 50 50"><path style="line-height:normal;text-indent:0;text-align:start;text-decoration-line:none;text-decoration-style:solid;text-decoration-color:#000;text-transform:none;block-progression:tb;isolation:auto;mix-blend-mode:normal" d="M25 2a1 1 0 1 0 0 2c11.61 0 21 9.39 21 21s-9.39 21-21 21S4 36.61 4 25c0-6.693 3.13-12.635 8-16.48V15a1 1 0 1 0 2 0V5H4a1 1 0 1 0 0 2h6.7C5.4 11.215 2 17.712 2 25c0 12.69 10.31 23 23 23s23-10.31 23-23S37.69 2 25 2z" font-weight="400" font-family="sans-serif" white-space="normal" overflow="visible"/></symbol></defs><g><use xlink:href="#icon-icon" width="24" height="24" x="3" y="3"/></g></svg>